<svg width="106" height="84" viewBox="0 0 106 84" fill="none" xmlns="http://www.w3.org/2000/svg">
<path d="M0.0087528 44.5754C0.0087528 43.0059 -0.0223521 41.4618 0.0398577 39.9205C0.0483409 39.6786 0.452705 39.2932 0.721339 39.2482C4.10612 38.6857 6.37961 36.6662 7.98576 33.7973C10.1094 30.0058 11.0199 25.8459 11.3451 21.5819C11.6222 17.9424 11.5713 14.2803 11.7042 10.6266C11.8626 6.25576 13.7996 2.90589 17.8093 1.01297C19.1326 0.385749 20.7275 0.0538556 22.1979 0.0482303C42.7356 -0.0136482 63.2734 -0.00521018 83.8083 0.0144784C89.6645 0.0201037 94.3133 4.64974 94.3076 10.4916C94.302 15.1353 94.1323 19.8015 95.0655 24.3665C95.6508 27.2382 96.4708 30.1099 97.5906 32.8157C98.9988 36.2274 101.507 38.6323 105.387 39.2595C105.619 39.296 105.961 39.6814 105.966 39.9148C106.017 41.4562 105.995 43.0003 105.995 44.5613C105.771 44.6373 105.613 44.7189 105.446 44.7442C102.016 45.2561 99.6916 47.2671 98.0515 50.1726C96.1485 53.5393 95.1757 57.2267 94.8449 61.0238C94.4886 65.1134 94.4462 69.2312 94.3246 73.3404C94.2483 75.9703 93.4565 78.316 91.7542 80.3243C89.755 82.6841 87.1903 83.9779 84.0741 83.9807C63.361 83.9976 42.6451 84.0145 21.9321 83.9751C16.2738 83.9639 11.806 79.2217 11.6816 73.4305C11.5911 69.2171 11.5459 64.9897 11.1217 60.8044C10.8559 58.1774 10.1377 55.5448 9.26106 53.0387C7.48242 47.9422 5.28528 46.0492 0.0087528 44.5754ZM60.5135 40.6236C60.85 40.4942 60.9744 40.438 61.1073 40.3986C65.2896 39.2089 68.2021 35.9518 68.6602 31.9494C69.1664 27.5588 67.0993 23.5958 63.1999 21.4807C61.0451 20.3134 58.7123 19.7509 56.2804 19.7312C50.0623 19.6806 43.8441 19.6946 37.6259 19.689C37.3941 19.689 37.1594 19.7537 36.9049 19.7931C36.9049 34.6355 36.9049 49.4132 36.9049 64.2471C37.1226 64.2781 37.2894 64.3231 37.4563 64.3231C43.994 64.3118 50.5288 64.3512 57.0665 64.2584C59.8829 64.219 62.6089 63.558 65.0803 62.1348C69.4576 59.6147 71.2702 55.7079 70.9252 50.8111C70.6 46.2067 68.0777 43.1381 63.7767 41.5152C62.8011 41.1496 61.7605 40.9583 60.5135 40.6236Z" fill="#4C9BB3"/>
<path d="M44.0195 58.5756C44.0195 53.7406 44.0195 48.945 44.0195 44.1691C44.1015 44.1073 44.1581 44.0285 44.209 44.0313C48.4025 44.0904 52.5988 44.1354 56.7924 44.2366C57.4484 44.2535 58.1129 44.4729 58.7463 44.681C62.0434 45.7583 63.6694 47.9297 63.6807 51.2289C63.6948 54.6379 62.0519 56.9695 58.7039 57.9568C57.3013 58.3702 55.7998 58.5756 54.3322 58.6206C51.1567 58.7218 47.9783 58.6628 44.8 58.6628C44.5625 58.6628 44.3221 58.6121 44.0195 58.5756Z" fill="#4C9BB3"/>
<path d="M44.0391 25.5103C48.0035 25.5103 51.9058 25.2347 55.7515 25.5806C60.2674 25.9885 62.538 29.673 61.2797 33.8217C60.864 35.1887 60.1062 36.3587 58.8394 37.0084C57.663 37.6132 56.3849 38.277 55.1096 38.381C51.4618 38.6735 47.7915 38.6932 44.0391 38.8226C44.0391 34.2436 44.0391 29.8756 44.0391 25.5103Z" fill="#4C9BB3"/>
</svg>
