<svg width="16" height="20" fill="none" xmlns="http://www.w3.org/2000/svg"><path d="M9.75 1.243V4.96c0 .504 0 .756.095.949.084.169.218.307.383.393.187.098.432.098.922.098h3.614M9.75 14.5H4.5m7-3.6h-7M15 8.19v6.49c0 1.512 0 2.268-.286 2.846a2.663 2.663 0 0 1-1.147 1.18C13.005 19 12.27 19 10.8 19H5.2c-1.47 0-2.205 0-2.767-.294a2.664 2.664 0 0 1-1.147-1.18C1 16.948 1 16.192 1 14.68V5.32c0-1.512 0-2.268.286-2.846a2.664 2.664 0 0 1 1.147-1.18C2.995 1 3.73 1 5.2 1h2.81c.642 0 .963 0 1.265.075.268.066.524.175.76.323.264.167.491.4.945.867l2.79 2.87c.454.467.68.7.843.973.144.241.25.505.315.78.072.31.072.641.072 1.301Z" stroke="#363636" stroke-width="1.5" stroke-linecap="round" stroke-linejoin="round"/></svg>