<svg width="114" height="103" viewBox="0 0 114 103" fill="none" xmlns="http://www.w3.org/2000/svg">
<path d="M110 35.6667H4M67.6 80.5278L80.85 67.3333L67.6 54.1389M46.4 54.1389L33.15 67.3333L46.4 80.5278M4 29.3333L4 73.6667C4 82.5342 4 86.9679 5.733 90.3548C7.25738 93.3341 9.68977 95.7563 12.6815 97.2743C16.0827 99 20.5352 99 29.44 99H84.56C93.4648 99 97.9173 99 101.318 97.2743C104.31 95.7563 106.743 93.3341 108.267 90.3549C110 86.9679 110 82.5342 110 73.6667V29.3333C110 20.4658 110 16.0321 108.267 12.6452C106.743 9.66593 104.31 7.24373 101.318 5.72574C97.9173 4.00001 93.4648 4.00001 84.56 4.00001L29.44 4C20.5352 4 16.0828 4 12.6816 5.72573C9.68978 7.24372 7.25738 9.66592 5.733 12.6451C4 16.0321 4 20.4658 4 29.3333Z" stroke="#4C9BB3" stroke-width="8" stroke-linecap="round" stroke-linejoin="round"/>
</svg>
