<svg width="114" height="94" viewBox="0 0 114 94" fill="none" xmlns="http://www.w3.org/2000/svg">
<path d="M33.4444 4L80.5556 90M4 70.8889L57 47M32.2667 90H81.7333C91.6276 90 96.5747 90 100.354 88.4378C103.678 87.0636 106.381 84.8708 108.074 82.1739C110 79.1078 110 75.0941 110 67.0667V26.9333C110 18.9059 110 14.8922 108.074 11.8261C106.381 9.12915 103.678 6.93642 100.354 5.56224C96.5747 4 91.6276 4 81.7333 4H32.2667C22.3724 4 17.4253 4 13.6462 5.56224C10.322 6.93642 7.61931 9.12915 5.92555 11.8261C4 14.8922 4 18.9059 4 26.9333V67.0667C4 75.0941 4 79.1078 5.92555 82.1739C7.61931 84.8708 10.322 87.0636 13.6462 88.4378C17.4253 90 22.3724 90 32.2667 90Z" stroke="#4C9BB3" stroke-width="8" stroke-linecap="round" stroke-linejoin="round"/>
</svg>
