<svg width="1247" height="856" viewBox="0 0 1247 856" fill="none" xmlns="http://www.w3.org/2000/svg">
<rect width="1247" height="856" fill="#ECEDEE"/>
<path fill-rule="evenodd" clip-rule="evenodd" d="M432.326 539.577C427.071 533.687 420.696 528.902 413.574 525.499C406.451 522.096 398.723 520.144 390.839 519.756C382.955 519.369 375.072 520.553 367.65 523.24C360.228 525.928 353.415 530.065 347.607 535.41L0 855.538H714.261L432.326 539.577Z" fill="#BFBFBF" fill-opacity="0.2"/>
<path fill-rule="evenodd" clip-rule="evenodd" d="M813.443 379.324C807.918 373.254 801.198 368.392 793.704 365.044C786.21 361.695 778.104 359.933 769.896 359.868C761.688 359.803 753.556 361.436 746.009 364.665C738.463 367.894 731.666 372.648 726.046 378.63L277.768 855.538H1247L813.443 379.324Z" fill="#BFBFBF" fill-opacity="0.3"/>
<path fill-rule="evenodd" clip-rule="evenodd" d="M220.114 326.549C244.057 326.549 267.018 317.038 283.948 300.108C300.878 283.179 310.389 260.217 310.389 236.275C310.389 212.332 300.878 189.371 283.948 172.441C267.018 155.511 244.057 146 220.114 146C196.172 146 173.21 155.511 156.281 172.441C139.351 189.371 129.84 212.332 129.84 236.275C129.84 260.217 139.351 283.179 156.281 300.108C173.21 317.038 196.172 326.549 220.114 326.549Z" fill="#BFBFBF" fill-opacity="0.3"/>
</svg>
