<svg width="114" height="106" viewBox="0 0 114 106" fill="none" xmlns="http://www.w3.org/2000/svg">
<path d="M64.5714 68.1871H88.1943C95.827 68.1871 99.6434 68.1871 102.559 66.688C105.123 65.3693 107.208 63.2652 108.515 60.6771C110 57.7349 110 53.8833 110 46.1801V26.007C110 18.3038 110 14.4523 108.515 11.51C107.208 8.92197 105.123 6.81782 102.559 5.49914C99.6434 4 95.827 4 88.1943 4H40.9486C33.3159 4 29.4995 4 26.5842 5.49914C24.0198 6.81782 21.9349 8.92197 20.6283 11.51C19.1429 14.4523 19.1429 18.3038 19.1429 26.007V34.9474M64.5714 68.1871H49.4286M64.5714 68.1871V86.5263M49.4286 86.5263H64.5714M64.5714 86.5263H82.7429M36.449 34.9474V39.6411C36.449 41.5187 36.449 42.4575 36.0953 43.1747C35.7842 43.8055 35.2878 44.3184 34.6772 44.6398C33.9831 45.0053 33.0745 45.0053 31.2571 45.0053H22.1714C20.3541 45.0053 19.4455 45.0053 18.7513 44.6398C18.1408 44.3184 17.6444 43.8055 17.3333 43.1747C16.9796 42.4575 16.9796 41.5187 16.9796 39.6411V34.9474M14.3837 102H39.0449C42.6795 102 44.4968 102 45.8851 101.269C47.1062 100.626 48.099 99.6005 48.7212 98.3389C49.4286 96.9045 49.4286 95.0269 49.4286 91.2716V45.6758C49.4286 41.9205 49.4286 40.0428 48.7212 38.6085C48.099 37.3468 47.1062 36.3211 45.8851 35.6782C44.4968 34.9474 42.6795 34.9474 39.0449 34.9474H14.3837C10.749 34.9474 8.93173 34.9474 7.54349 35.6782C6.32236 36.3211 5.32954 37.3468 4.70735 38.6085C4 40.0428 4 41.9205 4 45.6758V91.2716C4 95.0269 4 96.9045 4.70735 98.3389C5.32954 99.6005 6.32236 100.626 7.54349 101.269C8.93173 102 10.749 102 14.3837 102Z" stroke="#4C9BB3" stroke-width="8" stroke-linecap="round" stroke-linejoin="round"/>
</svg>
