<svg width="106" height="80" viewBox="0 0 106 80" fill="none" xmlns="http://www.w3.org/2000/svg">
<path d="M10.2062 80.0007C10.1685 79.9818 10.1321 79.9527 10.092 79.9464C9.85474 79.9073 9.61627 79.8631 9.3778 79.8391C8.69878 79.7722 8.03356 79.6282 7.37588 79.454C6.83116 79.31 6.35672 79.0297 5.935 78.6572C5.16435 77.9779 4.59327 77.1534 4.18034 76.214C3.82891 75.4122 3.60173 74.5738 3.5101 73.7039C3.46241 73.2519 3.42727 72.7948 3.46492 72.3377C3.46743 72.3099 3.46743 72.2809 3.46743 72.2518C3.49002 70.8932 3.81761 69.6015 4.30209 68.3427C4.76899 67.1318 5.45052 66.0548 6.28141 65.0686C7.18385 64.0005 8.18794 63.0383 9.25856 62.1406C10.6881 60.9423 12.2043 59.8653 13.7695 58.8564C15.2744 57.8867 16.8169 56.9801 18.3984 56.143C18.9506 55.8501 19.5066 55.5672 20.0589 55.2743C20.2722 55.1619 20.4768 55.0344 20.6852 54.9119C20.7316 54.8841 20.7429 54.7958 20.7065 54.7604C20.6149 54.672 20.5245 54.5811 20.4266 54.499C19.5844 53.7983 18.7084 53.1442 17.8135 52.5142C16.4529 51.5583 15.0873 50.6114 13.7268 49.6581C12.1905 48.5823 10.6718 47.4813 9.20584 46.3108C8.27329 45.5658 7.36333 44.7931 6.49102 43.9761C6.01282 43.5292 5.54089 43.0771 5.0903 42.6036C4.19666 41.6642 3.36075 40.6781 2.62148 39.6099C1.80063 38.4218 1.12035 37.1579 0.630857 35.7942C0.350965 35.0151 0.137594 34.2159 0.0396947 33.3901C-0.0155306 32.9217 -0.00925503 32.4494 0.0346742 31.981C0.122533 31.0277 0.310801 30.0921 0.590693 29.1754C0.804063 28.4797 1.05885 27.7991 1.34753 27.1324C2.21482 25.1324 3.37204 23.3079 4.69243 21.5869C5.40283 20.6614 6.1559 19.77 6.9642 18.9265C7.3081 18.5667 7.64071 18.1954 7.99716 17.8482C8.95357 16.9138 9.93382 16.0073 10.9592 15.1487C12.7164 13.6777 14.5589 12.3241 16.4743 11.0716C17.8649 10.1612 19.2882 9.30514 20.7379 8.492C22.298 7.61572 23.8908 6.80005 25.5036 6.02858C27.0148 5.30634 28.546 4.6283 30.0973 3.9995C31.6361 3.37576 33.1837 2.77726 34.7576 2.24821C36.3591 1.70906 37.987 1.26966 39.6388 0.918648C40.6516 0.703998 41.6683 0.518389 42.6962 0.392124C43.3288 0.31384 43.9601 0.216617 44.5952 0.168636C45.2303 0.119393 45.8654 0.0499473 46.5043 0.0512099C46.9574 0.0512099 47.4105 0.0120679 47.8636 0.00322939C48.2602 -0.00434649 48.6568 -0.00055855 49.0534 0.0360582C49.3496 0.0625738 49.6484 0.0524726 49.9458 0.0625738C50.5408 0.0827761 51.1332 0.138333 51.7243 0.209041C52.2301 0.269648 52.7372 0.327729 53.2418 0.407276C55.1947 0.715362 57.1013 1.20527 58.9225 1.99063C60.2165 2.54872 61.4465 3.2255 62.5573 4.10557C63.5225 4.86947 64.3672 5.74574 65.0525 6.7748C65.7804 7.86825 66.2611 9.06272 66.521 10.3506C66.7042 11.2622 66.7896 12.1802 66.7946 13.112C66.8046 14.7825 66.5247 16.4037 66.0415 17.9959C65.5031 19.7662 64.7148 21.4215 63.7509 22.9948C63.0129 24.1993 62.172 25.3281 61.252 26.3976C60.5918 27.1653 59.8801 27.8799 59.1496 28.5769C58.5936 29.1072 58.0062 29.6009 57.4038 30.0769C56.4649 30.8168 55.4884 31.5012 54.463 32.1136C53.1313 32.9103 51.7457 33.5896 50.2935 34.1363C48.9781 34.6313 47.6464 35.0732 46.2909 35.4432C45.1274 35.7601 43.9526 36.0253 42.7653 36.2336C42.0812 36.3535 41.3959 36.4621 40.7044 36.5278C40.2952 36.5669 39.8885 36.62 39.4794 36.6667C39.4656 36.668 39.4505 36.6692 39.4367 36.6705C38.1627 36.7626 36.8875 36.8144 35.6123 36.75C35.0764 36.7235 34.538 36.6856 34.002 36.625C33.2828 36.5442 32.5712 36.4293 31.8633 36.2803C31.1378 36.1275 30.4412 35.8914 29.7622 35.5972C28.6477 35.1162 27.6172 34.4937 26.696 33.6957C26.1901 33.2575 25.727 32.7739 25.3291 32.2335C24.9011 31.6515 24.6125 31.0062 24.4681 30.2966C24.4355 30.1375 24.4418 29.986 24.492 29.8332C24.561 29.6224 24.7116 29.5037 24.9162 29.4532C24.979 29.438 25.0643 29.4494 25.1195 29.4822C25.2413 29.5529 25.3593 29.635 25.4609 29.7322C25.6366 29.8976 25.8048 30.0719 25.9667 30.2512C26.4387 30.7752 26.9972 31.1868 27.6022 31.5366C28.8334 32.2462 30.1576 32.6906 31.5495 32.9457C32.1218 33.0505 32.7005 33.0972 33.2778 33.1679C33.4046 33.183 33.5326 33.183 33.6606 33.1843C34.2141 33.1856 34.7664 33.1894 35.3199 33.183C35.8445 33.178 36.3654 33.1123 36.8863 33.0454C37.3494 32.9861 37.8126 32.9204 38.2757 32.8548C39.0765 32.7411 39.8685 32.5808 40.6554 32.4002C41.9143 32.1123 43.1544 31.7563 44.3718 31.3244C46.1541 30.6931 47.8749 29.9242 49.5241 28.9948C50.788 28.2827 51.9967 27.4872 53.1501 26.6047C54.4517 25.6084 55.6466 24.4948 56.7461 23.2788C57.6159 22.3167 58.3915 21.2801 59.0655 20.1689C59.6504 19.2043 60.1437 18.1942 60.5089 17.1234C60.7913 16.2977 60.9959 15.4517 61.0687 14.5817C61.1465 13.6537 61.0976 12.7332 60.8478 11.8241C60.5503 10.7446 59.9868 9.85187 59.1283 9.13595C58.3765 8.50968 57.5305 8.05512 56.6356 7.68264C55.6491 7.27228 54.6212 7.00208 53.5719 6.81773C53.0422 6.7243 52.51 6.63086 51.9754 6.58162C51.4545 6.53364 50.9336 6.46419 50.4065 6.46798C49.4701 6.47429 48.5351 6.47177 47.5987 6.47808C47.4004 6.47934 47.2034 6.50586 47.0051 6.52227C46.9197 6.52858 46.8356 6.54121 46.7515 6.545C45.9859 6.58035 45.2291 6.68894 44.471 6.79121C42.9812 6.9945 41.5089 7.29501 40.0517 7.6637C38.2079 8.12962 36.3993 8.71044 34.6183 9.3809C32.3176 10.2471 30.0936 11.2812 27.9097 12.41C26.0671 13.362 24.256 14.3671 22.4875 15.4504C20.7668 16.5048 19.0899 17.6247 17.4859 18.852C16.3902 19.6904 15.3258 20.5642 14.328 21.5187C13.9577 21.8723 13.5799 22.2182 13.2273 22.5882C12.134 23.7309 11.1174 24.9367 10.2664 26.2776C9.5372 27.4254 8.93474 28.6325 8.53561 29.9368C8.3009 30.7007 8.13146 31.4785 8.05364 32.2777C8.01097 32.7045 7.98963 33.13 7.9821 33.5581C7.96076 34.774 8.20802 35.9381 8.64857 37.0644C9.04142 38.067 9.58866 38.9811 10.2263 39.8422C10.7007 40.4837 11.2178 41.0897 11.7726 41.6617C12.5068 42.4168 13.2724 43.1365 14.0719 43.8221C15.0221 44.6365 16.0023 45.4118 16.9863 46.1833C18.2841 47.1997 19.5832 48.2136 20.8722 49.2414C22.0846 50.2086 23.2356 51.2452 24.3062 52.3702C24.4116 52.4813 24.5008 52.6177 24.674 52.6846C24.7518 52.6505 24.8434 52.6164 24.9287 52.5697C25.3404 52.3462 25.7509 52.119 26.16 51.8929C26.9307 51.4674 27.7001 51.0407 28.4707 50.6139C29.5137 50.0368 30.558 49.4586 31.6022 48.8841C32.3352 48.48 33.0707 48.0785 33.805 47.6757C34.179 47.4711 34.5505 47.2628 34.9258 47.0633C35.1065 46.9674 35.2521 46.8411 35.3688 46.6744C35.827 46.0191 36.3466 45.4156 36.9001 44.8423C37.3055 44.4231 37.7322 44.0254 38.1678 43.639C38.7953 43.0822 39.4656 42.5784 40.1709 42.1226C40.8763 41.6668 41.6106 41.2678 42.3938 40.9622C42.8456 40.7854 43.3075 40.6428 43.7844 40.5771C44.3894 40.495 45.0006 40.4786 45.6006 40.6327C46.4001 40.8372 46.9888 41.317 47.4004 42.0304C47.7117 42.5708 47.8736 43.1605 47.9565 43.7716C48.0217 44.2514 48.0782 44.735 48.0443 45.2211C48.0129 45.6757 47.9703 46.1302 47.9238 46.5835C47.9025 46.7956 47.8623 47.0065 47.8335 47.2186C47.8309 47.2413 47.851 47.2679 47.8673 47.3083C48.0267 47.2414 48.1573 47.1315 48.2891 47.0267C48.4937 46.8638 48.7246 46.7565 48.9819 46.7186C49.2216 46.6833 49.4651 46.6807 49.7023 46.7275C50.0952 46.8045 50.4642 46.9459 50.7981 47.1757C50.9775 47.2994 51.1194 47.4535 51.2323 47.6391C51.3239 47.7881 51.3792 47.9472 51.3867 48.1227C51.3993 48.3941 51.3905 48.6631 51.3189 48.9282C51.1194 49.6719 50.9286 50.4169 50.7278 51.1606C50.2596 52.8942 49.7965 54.6304 49.3873 56.3791C49.1739 57.2945 48.9731 58.215 48.7873 59.1367C48.6292 59.9208 48.5514 60.715 48.574 61.5168C48.5815 61.7757 48.6242 62.0269 48.6694 62.2795C48.6744 62.306 48.6932 62.33 48.7045 62.3565C48.7246 62.4045 48.8125 62.4285 48.8501 62.3931C48.9216 62.3249 49.0032 62.2631 49.0572 62.1822C49.199 61.9689 49.3396 61.7542 49.4601 61.5282C49.7475 60.9878 50.0324 60.4448 50.301 59.8943C50.7378 58.9978 51.1683 58.0976 51.5863 57.1923C52.0519 56.1834 52.5038 55.1682 52.9569 54.1531C53.5217 52.8917 54.0815 51.6278 54.6425 50.3651C55.024 49.5053 55.4069 48.6467 55.7846 47.7855C56.2892 46.6378 56.7938 45.4901 57.2946 44.3411C57.6749 43.466 58.0426 42.5834 58.4292 41.711C58.8007 40.8738 59.0693 40.0039 59.2915 39.1175C59.3781 38.7715 59.4622 38.4256 59.55 38.0808C59.5889 37.9293 59.6366 37.7791 59.6818 37.6301C59.7433 37.4281 59.8713 37.2791 60.0533 37.1818C60.1776 37.1149 60.3069 37.0543 60.4386 37.0025C60.8102 36.8586 61.1967 36.7664 61.5896 36.702C62.4029 36.5707 63.2212 36.5076 64.0459 36.5291C64.4299 36.5392 64.8077 36.5985 65.1792 36.6945C65.4014 36.7513 65.6072 36.8485 65.7955 36.976C65.975 37.0972 66.1206 37.25 66.1996 37.4596C66.2411 37.5707 66.2574 37.6793 66.2197 37.793C66.167 37.9558 66.1156 38.1187 66.0641 38.2816C65.8557 38.9331 65.6399 39.5821 65.4403 40.2362C65.2658 40.8094 65.1215 41.3902 65.0324 41.9837C64.8981 42.8751 64.8454 43.7691 64.9659 44.6681C65.0387 45.2186 65.1002 45.7716 65.1742 46.3221C65.2207 46.6618 65.3035 46.9939 65.4152 47.3184C65.7227 48.2098 66.1457 49.0507 66.5787 49.8853C66.5912 49.9093 66.6126 49.9346 66.6364 49.9447C66.6578 49.9548 66.7004 49.956 66.7117 49.9422C66.7657 49.8765 66.8159 49.8083 66.8598 49.7363C67.692 48.3588 68.4965 46.9648 69.281 45.5595C70.1771 43.9547 71.0519 42.3398 71.8603 40.6882C72.2305 39.9332 72.5832 39.1705 72.8844 38.3839C73.0124 38.0505 73.1091 37.7096 73.1831 37.3586C73.3639 36.4924 73.5885 35.6389 73.8672 34.7992C73.8898 34.7311 73.9199 34.6654 73.9362 34.5972C74.0241 34.231 74.2701 34.0164 74.6014 33.875C74.983 33.7134 75.3821 33.6123 75.7863 33.5404C76.71 33.3737 77.6438 33.3219 78.5814 33.3611C78.9944 33.3788 79.396 33.4621 79.7826 33.6149C80.0123 33.7058 80.2068 33.8447 80.3649 34.0341C80.5306 34.231 80.6022 34.4457 80.5055 34.7071C80.3926 35.0139 80.3009 35.3295 80.1943 35.6402C79.9771 36.274 79.7838 36.9154 79.6106 37.5632C79.4437 38.1831 79.3257 38.8119 79.2667 39.4533C79.2303 39.8372 79.1952 40.221 79.2115 40.6061C79.2278 40.99 79.2554 41.3751 79.2993 41.7564C79.3546 42.2375 79.4311 42.716 79.5002 43.1958C79.5968 43.8663 79.8328 44.4926 80.1102 45.1037C80.3624 45.6618 80.621 46.2173 80.9122 46.7565C81.1155 47.1328 81.2988 47.5191 81.4946 47.8992C81.5335 47.9749 81.5787 48.0482 81.6326 48.1126C81.6552 48.1391 81.7117 48.1568 81.7468 48.1479C81.8284 48.129 81.9075 48.0936 81.9853 48.0608C82.4685 47.855 82.9455 47.6353 83.4337 47.4434C84.6913 46.9497 85.9841 46.581 87.3158 46.3449C87.9158 46.2388 88.5182 46.1542 89.1244 46.0886C89.5198 46.0456 89.9152 46.0267 90.3118 46.0103C90.6519 45.9964 90.9921 45.9534 91.3309 45.9623C92.0677 45.9825 92.8032 46.0128 93.5374 46.0873C94.357 46.1706 95.1628 46.3184 95.9649 46.5052C96.7681 46.6921 97.5488 46.9497 98.3107 47.2616C99.2721 47.6542 100.182 48.1479 101.038 48.7414C101.811 49.278 102.527 49.8828 103.163 50.5773C104.242 51.7566 105.067 53.0937 105.572 54.6203C105.764 55.2036 105.895 55.8021 105.977 56.4107C105.991 56.5092 105.996 56.6102 105.996 56.7099C105.998 57.2087 106.005 57.7087 105.996 58.2074C105.988 58.638 105.888 59.0559 105.775 59.4676C105.541 60.3173 105.13 61.0787 104.591 61.7719C103.862 62.7113 102.942 63.4121 101.892 63.9487C101.574 64.1103 101.24 64.2315 100.889 64.2921C100.764 64.3136 100.635 64.3199 100.508 64.3186C100.357 64.3174 100.23 64.2492 100.17 64.104C100.1 63.9373 100.097 63.7656 100.221 63.6204C100.294 63.5358 100.384 63.4626 100.476 63.3969C100.626 63.2896 100.782 63.1911 100.939 63.0926C101.507 62.734 102.013 62.3009 102.463 61.8009C103.113 61.0774 103.56 60.2441 103.759 59.2857C103.858 58.8097 103.891 58.3337 103.834 57.8425C103.66 56.3349 103.049 55.0268 102.111 53.8576C101.288 52.8323 100.271 52.0445 99.1265 51.4182C97.9605 50.7793 96.7204 50.3361 95.4277 50.0444C94.8616 49.9169 94.288 49.8146 93.7157 49.7187C93.3805 49.6631 93.0379 49.6543 92.7028 49.6C92.084 49.5002 91.459 49.5192 90.8377 49.4674C90.3168 49.4245 89.7897 49.4257 89.2663 49.4876C89.1684 49.499 89.068 49.504 88.9688 49.5078C87.0547 49.576 85.2022 49.956 83.4049 50.6164C83.3647 50.6316 83.3233 50.6417 83.2844 50.6581C82.8175 50.8525 82.8262 50.8159 82.9982 51.2982C83.253 52.0104 83.4525 52.7389 83.5893 53.4839C83.7161 54.1745 83.7575 54.8715 83.7036 55.571C83.6609 56.1278 83.5153 56.6657 83.3082 57.1847C83.0484 57.8387 82.6869 58.4322 82.2577 58.9877C81.8033 59.5761 81.2799 60.0964 80.7189 60.5812C80.0938 61.1216 79.4349 61.6153 78.7207 62.0307C78.0078 62.4449 77.2673 62.8035 76.4904 63.0838C76.1302 63.2138 75.7725 63.3502 75.4122 63.4815C74.9968 63.633 74.5701 63.7479 74.132 63.782C73.2346 63.8527 72.4501 63.5939 71.8552 62.8805C71.6331 62.6141 71.5 62.2971 71.4147 61.9625C71.2929 61.4878 71.2729 61.0029 71.3231 60.5181C71.3933 59.8489 71.549 59.1986 71.751 58.5584C72.0284 57.6834 72.4313 56.8678 72.9108 56.0887C73.6676 54.8589 74.55 53.7288 75.5641 52.701C76.0938 52.1644 76.6259 51.6303 77.2083 51.1505C77.2949 51.0798 77.3702 50.9939 77.4342 50.9321C77.4644 50.8146 77.4204 50.7389 77.3828 50.6631C77.1506 50.1896 76.9146 49.7187 76.6862 49.2426C76.2795 48.3941 75.8879 47.5381 75.6244 46.6315C75.4537 46.0431 75.283 45.4534 75.1374 44.8587C74.9717 44.1807 74.8349 43.4951 74.683 42.8133C74.6554 42.6895 74.6429 42.5607 74.5801 42.4471C74.5512 42.4597 74.5173 42.4635 74.506 42.4824C74.4546 42.567 74.4056 42.6542 74.3617 42.7425C73.1794 45.1163 71.8916 47.4295 70.5148 49.6934C69.8784 50.7401 69.2032 51.7616 68.5141 52.7743C68.4187 52.9144 68.3258 53.0584 68.2467 53.177C68.2242 53.3601 68.3057 53.4839 68.3534 53.6152C68.4965 54.0028 68.6497 54.3867 68.7852 54.7768C69.0099 55.4246 69.1743 56.0887 69.2948 56.763C69.4266 57.4978 69.4567 58.239 69.3977 58.9802C69.2722 60.5623 68.7061 61.9714 67.6857 63.186C67.1523 63.8224 66.5235 64.3552 65.8394 64.8199C65.0136 65.3818 64.1312 65.8351 63.2049 66.2012C63.0204 66.2745 62.8334 66.3427 62.6502 66.4172C61.8569 66.7379 61.0336 66.9411 60.1901 67.075C59.4471 67.1937 58.7003 67.2606 57.946 67.2353C57.5745 67.2227 57.2142 67.1545 56.8603 67.0434C56.5992 66.9613 56.3746 66.8149 56.175 66.6255C55.8587 66.3262 55.6968 65.9664 55.7018 65.5232C55.7056 65.0825 55.821 64.6798 56.0307 64.2984C56.2227 63.9474 56.4649 63.6292 56.7072 63.3136C57.4791 62.3098 58.2961 61.3426 59.107 60.3691C59.973 59.3312 60.839 58.2933 61.695 57.2478C62.0101 56.8627 62.315 56.47 62.5899 56.0521C62.7932 55.744 63.0317 55.4586 63.2463 55.1569C63.525 54.7655 63.535 54.8109 63.3154 54.3538C62.9388 53.571 62.5636 52.7869 62.1845 52.0053C61.7164 51.0406 61.3549 50.0381 61.0813 49.0002C60.8189 48.0078 60.5667 47.0141 60.3771 46.004C60.3558 45.8928 60.3244 45.7843 60.293 45.658C60.2428 45.687 60.1926 45.6971 60.1813 45.7249C60.1048 45.8941 60.037 46.0658 59.968 46.2375C59.2613 47.9964 58.5271 49.7427 57.7753 51.4826C56.5992 54.2048 55.3039 56.869 53.9409 59.5004C52.9983 61.3224 52.0268 63.128 51.0265 64.9197C50.5508 65.7719 49.9734 66.5422 49.327 67.2644C48.9555 67.6798 48.53 68.0359 48.0569 68.3288C47.9364 68.4033 47.8109 68.4715 47.6841 68.5333C46.567 69.0776 45.322 68.5687 44.7697 67.7568C44.4522 67.2896 44.24 66.7821 44.0982 66.2416C43.9313 65.6053 43.8321 64.9563 43.8196 64.2984C43.8058 63.585 43.8083 62.8716 43.8309 62.1595C43.8447 61.7327 43.9087 61.3085 43.9539 60.883C43.9677 60.7567 44.0041 60.6317 43.9664 60.5042C43.9376 60.5092 43.8999 60.5067 43.8936 60.5193C43.8309 60.6469 43.7681 60.7744 43.7154 60.9057C42.9033 62.9146 42.0109 64.8881 41.0081 66.8086C40.6843 67.4273 40.3404 68.0346 39.9149 68.5902C39.6802 68.897 39.4179 69.1786 39.1229 69.4235C38.6435 69.8238 38.0975 70.0675 37.4762 70.1634C36.8461 70.2606 36.2324 70.2038 35.6224 70.0548C35.158 69.9412 34.7576 69.7051 34.4099 69.3743C34.0158 68.9993 33.6895 68.5674 33.4033 68.1078C32.7971 67.1356 32.349 66.0889 32.0101 64.9954C31.7051 64.0143 31.4692 63.0143 31.3412 61.9941C31.2809 61.5143 31.2156 61.032 31.2232 60.5459C31.2282 60.2037 31.2106 59.8602 31.2282 59.5193C31.2533 59.0218 31.2872 58.5231 31.3399 58.0269C31.4014 57.4599 31.4805 56.8955 31.5633 56.3311C31.7579 55.0167 32.0453 53.725 32.4708 52.4649C32.5072 52.3576 32.5323 52.2465 32.5561 52.1366C32.5586 52.124 32.5197 52.0836 32.5047 52.0874C32.4507 52.0975 32.3942 52.1114 32.3465 52.1392C31.2709 52.7465 30.194 53.35 29.1234 53.9662C28.3728 54.398 27.6323 54.8475 26.888 55.2895C26.8039 55.34 26.7073 55.3778 26.6533 55.4991C26.6759 55.5609 26.696 55.6443 26.7324 55.7188C27.2482 56.7794 27.5394 57.9069 27.7365 59.0648C27.9523 60.335 28.0214 61.6153 27.9674 62.9007C27.9448 63.4259 27.8959 63.9525 27.8293 64.4765C27.7578 65.0434 27.6712 65.6053 27.5507 66.1634C27.3085 67.2808 26.9846 68.3717 26.5366 69.4248C25.9529 70.796 25.2074 72.0688 24.2886 73.2418C23.6372 74.0738 22.918 74.8403 22.1386 75.5499C21.2851 76.3277 20.3589 77.0095 19.3698 77.6042C17.811 78.5411 16.1479 79.2141 14.3744 79.6055C13.9314 79.7027 13.4858 79.786 13.034 79.8315C12.7804 79.8568 12.5282 79.9009 12.2771 79.9414C12.237 79.9477 12.2018 79.9767 12.1642 79.9957C11.5115 80.0007 10.8588 80.0007 10.2062 80.0007ZM23.3385 57.0875C23.159 57.1127 23.0561 57.1897 22.9482 57.2541C22.5465 57.494 22.1474 57.7403 21.7458 57.9802C19.6597 59.2276 17.6528 60.59 15.745 62.0989C15.0321 62.6633 14.338 63.2504 13.6766 63.8755C12.7829 64.7189 12.0023 65.6545 11.3734 66.7164C10.663 67.9184 10.1622 69.1937 9.99155 70.5915C9.9175 71.1937 9.95139 71.7859 10.1133 72.3705C10.171 72.5789 10.2526 72.7758 10.3643 72.9577C10.594 73.3314 10.8977 73.6193 11.3144 73.7758C11.6897 73.916 12.0763 73.9956 12.4767 74.0082C13.1921 74.0309 13.8874 73.9009 14.5702 73.7014C15.7099 73.368 16.7604 72.844 17.7444 72.1824C18.8 71.474 19.7351 70.6293 20.5572 69.6546C21.5173 68.5157 22.3093 67.2745 22.8892 65.8969C23.5443 64.3401 23.8569 62.7126 23.8933 61.0294C23.9096 60.2731 23.8355 59.5193 23.7163 58.7731C23.6422 58.3097 23.5343 57.8514 23.4377 57.3905C23.4163 57.2971 23.3774 57.2062 23.3385 57.0875ZM45.1927 45.6353C45.1927 45.5065 45.1977 45.3789 45.1914 45.2502C45.1789 44.9938 45.0408 44.8272 44.8086 44.735C44.6203 44.6592 44.4258 44.6416 44.2237 44.6794C43.8146 44.7552 43.4343 44.908 43.0765 45.1188C42.4364 45.4964 41.8616 45.9585 41.357 46.5052C40.9027 46.9977 40.5086 47.5381 40.1458 48.1012C39.4819 49.1328 38.8945 50.206 38.3761 51.3184C37.9594 52.2099 37.6143 53.1291 37.3369 54.076C36.9214 55.4915 36.6905 56.9397 36.5989 58.4082C36.5298 59.5206 36.5687 60.6317 36.7645 61.7327C36.8348 62.1267 36.9265 62.5156 37.0758 62.8868C37.1398 63.0446 37.2126 63.1999 37.2955 63.3489C37.3796 63.4992 37.495 63.6267 37.6431 63.7176C37.7837 63.8035 37.9293 63.8249 38.0887 63.7568C38.3046 63.6646 38.4778 63.5181 38.6171 63.3363C38.8066 63.0876 38.9936 62.835 39.1543 62.5673C39.3589 62.2264 39.5471 61.8729 39.7241 61.5168C40.1358 60.6873 40.4985 59.8337 40.8399 58.9726C41.4173 57.5155 41.9846 56.0546 42.5469 54.5912C43.2284 52.8222 43.8459 51.0306 44.3919 49.2136C44.6417 48.3815 44.8789 47.5444 45.0521 46.6908C45.1236 46.3436 45.1977 45.9951 45.1927 45.6353ZM78.9366 52.975C78.8814 53.0003 78.8387 53.0116 78.8073 53.0369C78.7082 53.1164 78.6053 53.196 78.5174 53.2869C78.2225 53.595 77.9237 53.8993 77.6438 54.22C76.8719 55.1026 76.2117 56.0609 75.7298 57.1354C75.5553 57.5256 75.3871 57.9183 75.2328 58.3173C75.0633 58.7554 74.9077 59.1999 74.8198 59.6645C74.791 59.8198 74.7721 59.9764 74.8085 60.1317C74.8688 60.3842 74.9855 60.4411 75.2077 60.3565C75.9683 60.0648 76.6786 59.6835 77.305 59.1569C78.0718 58.513 78.6341 57.7213 78.9567 56.7642C79.1036 56.3299 79.1814 55.8842 79.2441 55.4296C79.327 54.8273 79.2943 54.2351 79.1676 53.6455C79.1287 53.4649 79.0797 53.2856 79.0282 53.1076C79.0144 53.0609 78.9692 53.0205 78.9366 52.975ZM64.9746 57.7769C64.8943 57.7289 64.8466 57.7579 64.8102 57.8034C64.642 58.0155 64.4739 58.2264 64.312 58.4423C63.1886 59.9322 61.9724 61.3413 60.7072 62.71C60.4374 63.0017 60.1688 63.2972 59.904 63.5939C59.8475 63.657 59.8048 63.7315 59.7609 63.8035C59.7282 63.8578 59.781 63.955 59.8437 63.9739C59.9567 64.008 60.0684 63.9967 60.1776 63.9613C60.4612 63.8691 60.7336 63.7517 60.9846 63.5863C61.6611 63.1393 62.3088 62.657 62.8924 62.0901C63.4045 61.5926 63.8664 61.0547 64.2354 60.4411C64.6847 59.6948 64.9307 58.8842 64.9847 58.0155C64.9897 57.9322 64.9772 57.8476 64.9746 57.7769Z" fill="#4C9BB3"/>
</svg>
