<svg width="106" height="68" viewBox="0 0 106 68" fill="none" xmlns="http://www.w3.org/2000/svg">
<path d="M43.3565 11.0385C50.4897 0.927141 65.4048 -3.61892 78.1244 3.35374C91.9638 10.9407 96.7496 29.1478 87.529 42.8303C87.7401 43.0565 87.9589 43.2964 88.1853 43.5317C93.6776 49.2422 99.176 54.9465 104.661 60.6646C106.651 62.7398 106.385 65.7669 104.115 67.2828C102.371 68.4472 100.197 68.1798 98.6594 66.5829C95.241 63.0362 91.8332 59.4773 88.4193 55.926C86.3606 53.7836 84.2959 51.6474 82.2327 49.5096C82.0762 49.3476 81.909 49.1963 81.7161 49.0114C74.3505 54.3949 66.2708 56.0147 57.4876 53.5758C52.7125 52.2495 48.6605 49.6593 45.1098 45.8712C45.9424 45.8712 46.5623 45.8712 47.1837 45.8712C49.4368 45.8712 51.6915 45.8544 53.9446 45.8865C54.3776 45.8926 54.8486 46.0087 55.2315 46.2105C67.9238 52.8699 83.4086 45.2523 85.9398 31.0916C88.0607 19.2229 79.9598 7.96398 68.0149 6.26475C62.079 5.41972 56.7371 6.94627 51.971 10.5908C51.6413 10.8429 51.1628 11.0156 50.751 11.0217C48.3232 11.0584 45.8938 11.0385 43.3565 11.0385Z" fill="#4C9BB3"/>
<path d="M64.8214 43.8725C57.2233 43.7854 50.4684 38.486 48.902 31.2979C46.9907 22.5282 52.477 13.977 61.213 12.1097C69.6877 10.2974 78.0789 15.1704 80.4581 23.2846C83.0592 32.1551 77.4316 41.5223 68.3446 43.4018C67.1884 43.6433 65.9973 43.7197 64.8214 43.8725ZM64.8183 38.0871C70.4626 38.0841 75.1466 33.3837 75.1238 27.7405C75.1025 22.1064 70.4534 17.4381 64.8563 17.4289C59.1391 17.4198 54.4825 22.0713 54.4961 27.7771C54.5098 33.4662 59.1407 38.0902 64.8183 38.0871Z" fill="#4C9BB3"/>
<path d="M46.2767 42.624C39.7649 42.624 33.3686 42.624 26.9191 42.624C26.9191 32.8076 26.9191 23.0217 26.9191 13.1931C33.361 13.1931 39.774 13.1931 46.2326 13.1931C46.2326 14.7533 46.2326 16.2676 46.2326 17.866C41.661 17.866 37.1198 17.866 32.5223 17.866C32.5223 20.2452 32.5223 22.5435 32.5223 24.9043C37.0256 24.9043 41.4969 24.9043 46.029 24.9043C46.029 26.4538 46.029 27.9407 46.029 29.5253C41.5288 29.5253 37.0408 29.5253 32.5072 29.5253C32.5072 32.259 32.5072 34.895 32.5072 37.6394C32.8156 37.6394 33.1088 37.6394 33.4005 37.6394C37.4252 37.6394 41.4513 37.6516 45.476 37.6257C46.0974 37.6211 46.3116 37.7815 46.2888 38.4294C46.2448 39.8001 46.2767 41.1708 46.2767 42.624Z" fill="#4C9BB3"/>
<path d="M0 39.1858C1.33547 37.8778 2.6755 36.5667 4.0596 35.2143C4.54122 35.5444 5.08665 35.9448 5.65791 36.3069C7.49931 37.4759 9.52759 37.9313 11.6759 37.7418C12.3079 37.6853 12.9703 37.4499 13.5249 37.1306C15.4696 36.012 15.617 33.6068 13.7361 32.3828C12.4978 31.5775 11.0712 31.0625 9.71903 30.4375C8.1359 29.7071 6.45099 29.1524 4.97118 28.2539C0.474025 25.5202 -0.560625 19.8724 2.63448 15.9421C4.2176 13.9984 6.32793 12.9287 8.77857 12.6522C12.589 12.2228 16.2034 12.7683 19.3454 15.2056C19.6432 15.4363 19.9182 15.6976 20.1916 15.9345C18.844 17.2624 17.5298 18.5582 16.1746 19.8922C15.1658 18.9937 13.9245 18.2236 12.434 17.9729C11.1259 17.7529 9.81778 17.6551 8.57195 18.2908C6.28538 19.4582 6.02103 22.0208 8.17996 23.3915C9.59596 24.2916 11.2414 24.8172 12.7607 25.5599C14.4821 26.4019 16.2885 27.1323 17.8625 28.202C21.8674 30.9189 22.4706 37.832 17.5982 41.2747C15.7765 42.5614 13.7513 43.1711 11.5468 43.22C7.44006 43.3132 3.67673 42.3123 0.458832 39.6259C0.341845 39.5281 0.221819 39.4365 0.107871 39.3356C0.0698882 39.3035 0.0486179 39.2546 0 39.1858Z" fill="#4C9BB3"/>
</svg>
