<svg width="106" height="106" viewBox="0 0 106 106" fill="none" xmlns="http://www.w3.org/2000/svg">
<path d="M63.0647 67.3444C66.3892 72.3544 65.6095 77.0419 61.4255 81.3691C56.9187 86.0315 51.2799 89.0057 45.3645 91.3557C39.2898 93.7686 33.0599 95.7918 26.8552 97.8528C26.0419 98.1209 24.7674 97.8863 24.0379 97.392C10.4337 88.2265 2.41367 75.5632 0.397141 59.222C-2.93999 32.2113 15.0662 6.67108 42.652 1.06621C51.5399 -0.743437 60.4067 -0.253324 69.0891 2.56587C69.6551 2.75018 70.2085 2.98058 71.0637 3.29894C67.0558 4.74833 63.3078 5.9757 59.6605 7.44185C52.0513 10.4998 44.6853 13.9976 39.1053 20.3021C34.1457 25.8985 33.1186 32.6596 36.5521 39.2866C37.9482 41.9801 39.6713 44.6736 41.8345 46.7597C46.0353 50.8272 50.781 54.325 55.0489 58.3297C57.9752 61.0777 60.8637 64.0184 63.0647 67.3444Z" fill="#4C9BB3"/>
<path d="M66.2551 104.413C56.4198 106.993 43.2264 106.373 35.3992 102.947C40.7906 100.752 46.2114 98.7451 51.4518 96.349C57.5014 93.5843 63.2324 90.2331 67.5757 85.0052C73.2144 78.2107 73.7007 70.9386 69.043 63.3858C65.7268 58.0072 60.9601 54.0527 56.1641 50.0564C52.1142 46.6801 48.0057 43.2074 44.7021 39.1441C39.8473 33.1748 40.8409 27.4904 46.7899 22.5599C53.1372 17.2985 60.6708 14.3746 68.3513 11.7816C71.9735 10.5585 75.646 9.46513 79.3479 8.50166C80.266 8.26289 81.595 8.45559 82.3706 8.9834C95.3879 17.8515 103.32 30.0331 105.479 45.6748C109.21 72.7105 92.5706 97.501 66.2551 104.413Z" fill="#4C9BB3"/>
</svg>
