<svg width="106" height="57" viewBox="0 0 106 57" fill="none" xmlns="http://www.w3.org/2000/svg">
<path d="M47.9438 45.4269C48.127 45.3059 48.2236 45.2219 48.3369 45.1749C49.9825 44.4795 51.6315 43.7909 53.3937 43.0518C53.6269 43.549 53.8401 44.0361 54.0833 44.5064C55.1027 46.475 56.3719 48.2353 58.4173 49.2263C60.9657 50.4625 63.8206 50.2946 65.8327 47.7381C67.1353 46.0853 67.9281 44.2074 68.3145 42.1683C68.8009 39.5883 68.8242 36.9983 68.1746 34.425C67.0486 29.9638 64.0605 27.4947 59.5066 27.3368C58.3507 27.2965 57.1914 27.3301 55.9588 27.3301C55.8322 25.637 55.719 24.1522 56.6151 22.6438C59.52 17.7459 62.2949 12.7707 65.1198 7.82575C65.2398 7.61747 65.3364 7.39575 65.5029 7.05646C65.1398 6.99935 64.88 6.92208 64.6168 6.92208C61.3255 6.91201 58.0342 6.94896 54.7462 6.88849C53.8201 6.87169 53.3371 7.28153 53.0706 8.05418C52.7008 9.12245 52.3744 10.2075 52.0579 11.2926C49.0831 21.4277 46.1082 31.5629 43.1434 41.698C41.7542 46.4447 40.3884 51.1982 39.0026 55.945C38.9093 56.2675 38.7161 56.5597 38.3863 56.852C34.6853 45.2052 31.324 33.5214 27.6763 21.8611C24.0052 33.4945 20.6539 45.1951 17.0828 56.9998C16.7697 56.7344 16.5798 56.6571 16.5431 56.5328C11.0365 37.8079 5.53992 19.0762 0 0.19332C2.43516 0.19332 4.6971 0.19332 7.12227 0.19332C10.4202 11.5177 13.7415 22.926 17.1228 34.546C17.3526 34.1798 17.5159 34.0152 17.5758 33.817C19.6679 26.6582 21.7399 19.4927 23.8553 12.3373C24.0851 11.5647 24.0418 10.8895 23.8153 10.1437C22.9359 7.25802 22.093 4.3589 21.2436 1.46651C21.127 1.07011 21.0437 0.663628 20.9238 0.163086C23.2656 0.163086 25.5376 0.163086 27.9727 0.163086C31.2874 11.5378 34.6053 22.9327 37.9233 34.3242C38.0365 34.3276 38.1498 34.3343 38.2631 34.3377C41.5677 22.9898 44.8723 11.642 48.2069 0.196679C57.2314 0.196679 66.2458 0.196679 75.4101 0.196679C75.4201 1.69159 75.66 3.09915 74.8039 4.54703C71.7291 9.73385 68.7676 14.9912 65.7661 20.2217C65.5829 20.5442 65.423 20.8768 65.2198 21.2732C65.4729 21.421 65.6662 21.5688 65.8827 21.6528C71.3327 23.7121 74.3675 27.8575 75.5401 33.4206C76.706 38.9601 76.3063 44.3888 73.4913 49.4245C71.6558 52.7066 69.1374 55.3 65.3997 56.2876C60.003 57.7153 55.3559 56.3716 51.6048 52.1523C49.9459 50.2878 48.7233 47.98 47.9438 45.4269Z" fill="#4C9BB3"/>
<path d="M100.41 7.88102C101.772 5.14987 103.055 2.57662 104.338 0C104.411 0.00671868 104.487 0.0134374 104.561 0.0167967C104.914 2.22388 105.28 4.42761 105.61 6.63806C105.65 6.90009 105.523 7.21587 105.397 7.46782C104.198 9.816 102.982 12.1575 101.766 14.4989C101.713 14.5997 101.596 14.6669 101.456 14.7945C101.04 14.1395 100.663 13.5012 100.243 12.8898C99.2174 11.3882 97.9848 10.1015 96.4258 9.14413C93.8041 7.53501 91.0991 7.60891 88.6106 9.44983C86.1121 11.2975 84.5298 13.8203 83.4971 16.7329C81.7548 21.6442 81.2651 26.6833 81.8048 31.9037C81.7148 31.7592 81.5982 31.6282 81.5416 31.4737C78.6168 23.297 78.9465 15.2615 82.6076 7.38719C83.5004 5.46901 84.7596 3.79606 86.4053 2.45232C89.1169 0.235154 92.0884 0.0403121 95.0933 1.84092C96.8155 2.87224 98.1181 4.32011 99.1907 5.99643C99.5638 6.58431 99.9469 7.16884 100.41 7.88102Z" fill="#4C9BB3"/>
<path d="M105.022 40.8777C105.389 42.7757 105.725 44.3747 105.988 45.9805C106.042 46.3131 105.905 46.7263 105.739 47.0387C104.13 50.089 101.981 52.679 99.1527 54.651C95.1219 57.4594 89.8551 57.2914 85.8576 54.2445C82.7195 51.8526 80.6175 48.6512 79.0018 45.1003C78.3655 43.6995 77.8825 42.2315 77.3262 40.7937C77.4028 40.75 77.4827 40.7063 77.5594 40.666C77.7492 40.9885 77.9525 41.3043 78.1323 41.6335C79.4915 44.1161 81.1405 46.3467 83.3092 48.1909C87.9663 52.1482 93.816 52.3498 98.6663 48.6209C100.532 47.1865 102.148 45.5035 103.4 43.4845C103.886 42.7085 104.369 41.9291 105.022 40.8777Z" fill="#4C9BB3"/>
</svg>
